<svg width="239" height="223" viewBox="0 0 239 223" fill="none" xmlns="http://www.w3.org/2000/svg">
<path d="M80.8925 180.28C69.9087 176.519 60.1341 170.224 52.4875 161.988C44.8408 153.752 39.573 143.844 37.179 133.196L20.6871 61.0919C18.3028 51.1211 25.1578 41.3349 35.8875 39.2115L132.951 20.1008L133.249 20.0084C143.88 18.0697 154.311 24.4399 156.497 34.2261L159.974 49.644L203.191 58.2299H203.489C213.921 60.4457 220.676 70.2319 218.491 80.0181L201.999 152.214C200.095 160.508 196.452 168.371 191.278 175.356C186.103 182.341 179.499 188.31 171.841 192.923C164.184 197.535 155.624 200.7 146.65 202.238C137.675 203.776 128.463 203.655 119.539 201.884C104.404 198.939 90.7839 191.326 80.8925 180.28ZM199.018 76.2328L101.954 57.0298L85.4626 129.226V129.503C79.7997 154.245 96.987 178.618 123.712 183.881C150.437 189.143 176.864 173.264 182.526 148.429L199.018 76.2328ZM159.279 153.045C156.142 157.985 151.413 161.882 145.761 164.185C140.109 166.488 133.82 167.081 127.785 165.878C121.767 164.687 116.3 161.777 112.149 157.556C107.999 153.334 105.372 148.013 104.637 142.336L159.279 153.045ZM84.4691 48.4438L40.0602 57.3067L56.5521 129.411L56.6514 129.688C58.1416 136.242 61.1221 142.151 65.1954 147.229C64.2019 140.12 64.4006 132.734 66.0895 125.348L70.3616 106.884C65.8909 106.145 62.0162 103.837 59.9299 100.514C60.526 94.882 65.4935 89.8966 72.3485 88.4194H74.8322L82.5815 53.2445C82.9789 51.4904 83.575 49.9209 84.4691 48.4438ZM149.642 113.623C152.821 108.73 159.577 106.145 166.432 107.53C173.287 108.823 178.254 113.716 179.149 119.44C175.87 124.241 169.214 126.826 162.259 125.348C155.404 124.148 150.437 119.255 149.642 113.623ZM101.16 104.022C104.339 99.1288 110.995 96.5438 117.85 97.9286C124.507 99.2211 129.772 104.207 130.567 109.838C127.288 114.639 120.632 117.316 113.777 116.116C106.922 114.547 101.954 109.654 101.16 104.022ZM119.241 41.6119L138.714 45.4894L137.124 38.1036L119.241 41.6119Z" fill="#172B46" fill-opacity="0.1"/>
</svg>
