<svg width="56" height="56" viewBox="0 0 56 56" fill="none" xmlns="http://www.w3.org/2000/svg">
<path d="M24.8733 24.8734C24.0409 25.7014 23.571 26.8259 23.5667 28C23.5667 29.1758 24.0337 30.3034 24.8651 31.1349C25.6966 31.9663 26.8242 32.4334 28 32.4334C29.1741 32.429 30.2986 31.9591 31.1267 31.1267" stroke="#212D44" stroke-width="3" stroke-linecap="round" stroke-linejoin="round"/>
<path d="M28 14.7C25.3695 14.7 22.7981 15.48 20.6109 16.9415C18.4237 18.4029 16.719 20.4801 15.7124 22.9103C14.7057 25.3406 14.4424 28.0148 14.9555 30.5947C15.4687 33.1747 16.7354 35.5445 18.5955 37.4045C20.4555 39.2646 22.8253 40.5313 25.4053 41.0445C27.9852 41.5576 30.6594 41.2943 33.0897 40.2876C35.5199 39.281 37.5971 37.5763 39.0585 35.3891C40.52 33.2019 41.3 30.6305 41.3 28" stroke="#212D44" stroke-width="3" stroke-linecap="round" stroke-linejoin="round"/>
<path d="M28 5.83334C23.6158 5.83334 19.3301 7.1334 15.6848 9.5691C12.0396 12.0048 9.1984 15.4668 7.52066 19.5172C5.84292 23.5676 5.40394 28.0246 6.25925 32.3245C7.11456 36.6244 9.22573 40.5741 12.3258 43.6742C15.4259 46.7743 19.3756 48.8854 23.6755 49.7408C27.9754 50.5961 32.4324 50.1571 36.4828 48.4793C40.5332 46.8016 43.9952 43.9604 46.4309 40.3152C48.8666 36.6699 50.1667 32.3842 50.1667 28M36.225 19.7773L30.2167 25.7833" stroke="#212D44" stroke-width="3" stroke-linecap="round" stroke-linejoin="round"/>
<path d="M48.86 13.636L41.3 14.7L42.364 7.14C42.3718 7.05219 42.3532 6.96404 42.3107 6.88683C42.2682 6.80961 42.2036 6.74683 42.1252 6.70651C42.0468 6.66618 41.9582 6.65015 41.8706 6.66045C41.783 6.67075 41.7006 6.70691 41.6337 6.76433L36.6217 11.7507C36.1069 12.2692 35.7282 12.9069 35.5194 13.6071C35.3105 14.3073 35.278 15.0482 35.4247 15.764L36.2227 19.7773L40.236 20.573C40.9518 20.7197 41.6927 20.6871 42.3929 20.4783C43.0931 20.2694 43.7308 19.8908 44.2493 19.376L49.2333 14.3663C49.2909 14.2993 49.3272 14.2166 49.3375 14.1288C49.3477 14.0409 49.3315 13.9521 49.2908 13.8736C49.2502 13.7951 49.187 13.7305 49.1094 13.6882C49.0318 13.6458 48.9433 13.6277 48.8553 13.636" stroke="#212D44" stroke-width="3" stroke-linecap="round" stroke-linejoin="round"/>
</svg>
