<svg width="711" height="613" viewBox="0 0 711 613" fill="none" xmlns="http://www.w3.org/2000/svg">
<g opacity="0.3">
<path fill-rule="evenodd" clip-rule="evenodd" d="M593.99 66.5869C593.696 64.452 593.537 63.297 591.719 61.5693L591.806 61.3C589.163 62.1227 586.614 62.751 583.861 63.1773C583.583 63.2156 583.306 63.2535 583.03 63.2914C579.687 63.7496 576.425 64.1968 573.162 65.0396L573.162 65.0397C570.716 65.78 570.716 65.78 568.812 66.1315C561.418 67.4777 554.125 69.2577 546.864 71.1574C546.282 71.3157 545.993 71.3942 545.703 71.4715C545.418 71.5475 545.133 71.6223 544.567 71.7707C539.061 73.2366 533.554 74.7025 528.126 76.475C526.018 77.1631 523.902 77.8362 521.786 78.5018C520.315 78.9505 518.844 79.3993 517.365 79.8555C516.597 80.094 516.594 80.0948 515.847 80.3242L515.839 80.3267C513.054 81.1643 510.427 81.9945 507.894 83.4155C506.98 83.9949 506.538 84.2751 506.064 84.4827C505.62 84.677 505.149 84.8078 504.236 85.0609C500.625 85.9285 497.392 86.998 494.088 88.5985L493.84 88.7222C492.17 89.5557 490.51 90.3842 488.778 91.104C486.505 91.9865 484.396 92.9288 482.265 94.0956C479.81 95.4418 477.317 96.6758 474.776 97.865C467.381 101.231 460.262 104.865 453.221 108.784C452.92 108.95 452.623 109.116 452.328 109.28C452.077 109.42 451.827 109.559 451.577 109.697C449.737 110.706 447.982 111.746 446.22 112.875V114.371C445.744 114.371 445.396 114.371 445.053 114.415C444.123 114.534 443.233 114.975 439.927 116.615V118.111H438.354L435.207 121.102C432.847 121.85 432.847 121.85 431.714 122.927C431.141 123.525 430.841 123.839 430.495 124.089C430.115 124.365 429.679 124.565 428.764 124.984C428.285 125.186 427.813 125.388 427.341 125.59V127.086C426.786 127.086 426.387 127.086 426.006 127.167C425.021 127.378 424.153 128.131 421.047 130.825V132.321C419.151 132.613 418.121 132.867 416.729 134.153C414.605 136.778 412.481 138.985 409.751 141.064C406.298 143.749 402.844 146.449 399.997 149.739L399.98 149.759C399.123 150.779 399.118 150.786 398.274 151.796C396.606 153.262 395.914 154.032 394.978 156.052C394.765 156.635 394.553 157.211 394.34 157.779H392.767C392.499 158.05 392.235 158.319 391.973 158.586C391.744 158.82 391.516 159.052 391.288 159.283C391.104 159.504 390.922 159.722 390.741 159.939C390.365 160.391 389.993 160.837 389.621 161.287C387.921 163.284 386.584 165.027 385.491 167.375C385.339 167.792 385.264 167.998 385.19 168.203L384.901 168.998H383.327C383.013 169.417 382.706 169.821 382.399 170.225C381.424 171.833 380.448 173.426 379.394 174.981L379.328 175.043C378.047 176.238 377.082 177.139 376.232 178.676C375.867 179.447 375.682 179.838 375.462 180.207C375.236 180.587 374.972 180.944 374.438 181.667C372.173 184.734 370.222 187.815 368.475 191.166C367.209 193.664 365.911 196.124 364.519 198.555C361.002 204.538 358.052 210.596 355.393 216.953C354.992 217.926 354.591 218.891 354.182 219.855C352.994 222.398 351.901 224.806 351.13 227.484L351.06 227.779C350.565 229.887 350.071 231.986 349.462 234.065C347.889 236.309 347.889 236.309 347.275 238.688L347.25 238.812C346.707 241.463 346.164 244.121 345.529 246.765C343.853 250.504 343.326 254.012 342.775 257.983C342.681 258.671 342.587 259.337 342.492 260.003C342.421 260.502 342.385 260.749 342.349 260.995C342.314 261.237 342.279 261.478 342.209 261.955C342.044 263.129 341.839 264.303 341.595 265.462C340.667 267.564 340.006 269.314 339.629 271.58C339.534 272.5 339.44 273.398 339.354 274.295C339.188 275.881 339.039 277.459 338.897 279.044C338.847 279.573 338.803 280.096 338.759 280.612L338.748 280.75C337.088 299.298 336.954 317.845 338.59 336.468C338.638 337.052 338.693 337.62 338.748 338.181C339.228 343.566 339.715 348.861 340.84 354.111C341.32 356.198 341.706 358.21 342.012 360.334C342.642 365.494 343.507 370.423 344.915 375.441C347.165 384.117 347.165 384.117 349.178 392.791L349.179 392.793C349.261 393.156 349.345 393.511 349.429 393.865C349.49 394.123 349.552 394.381 349.611 394.64C349.755 395.254 349.928 395.883 350.103 396.521C350.561 398.191 351.035 399.918 351.035 401.558C341.517 396.996 332.234 392.127 323.817 385.852C323.565 385.657 323.316 385.462 323.068 385.269C322.681 384.967 322.297 384.668 321.913 384.371C321.346 383.952 320.775 383.536 320.201 383.119C316.918 380.728 313.598 378.31 310.979 375.247C309.256 373.123 307.455 371.268 305.378 369.451L303.018 368.703C303.018 367.207 303.018 367.207 301.98 365.823C299.447 362.877 297.071 359.908 294.908 356.699C293.783 354.986 293.783 354.986 292.792 353.753L292.792 353.752H291.218C291.218 351.509 291.218 351.509 290.18 349.743C287.34 345.48 284.886 341.001 282.518 336.506C282.345 336.172 282.174 335.84 282.002 335.508C281.666 334.857 281.331 334.208 280.992 333.559C280.791 333.181 280.589 332.804 280.388 332.427C279.014 329.852 277.642 327.281 276.366 324.659C273.204 318.077 269.979 311.877 265.904 305.812C264.991 304.458 264.102 303.082 263.245 301.691C259.233 295.034 254.356 288.939 249.085 283.143C236.971 270.787 224.856 266.524 207.55 265.567C207.102 265.545 206.661 265.522 206.221 265.5V263.256H207.794L209.367 259.517H210.94C213.654 256.076 213.654 256.076 218.563 246.503C218.671 246.288 218.777 246.075 218.881 245.863C219.895 243.82 220.818 241.959 222.465 240.258C223.527 239.353 223.527 239.353 224.266 237.947L225.1 236.362C225.269 236.161 225.438 235.961 225.605 235.763C226.934 234.193 228.203 232.694 229.23 230.894C229.378 230.569 229.525 230.256 229.673 229.944C229.722 229.839 229.771 229.735 229.82 229.63H231.393C231.69 228.726 231.843 228.259 232.031 227.807C232.231 227.323 232.471 226.856 232.967 225.891C235.327 225.143 235.327 225.143 237.104 223.976L237.104 223.976C237.757 223.498 238.387 223.034 239.016 222.57C240.08 221.798 240.556 221.453 241.016 221.085C241.389 220.787 241.751 220.474 242.407 219.908V218.412H243.98C251.217 213.79 258.454 210.723 267.186 210.484H269.129C275.344 210.462 280.575 211.613 285.963 214.62C286.45 214.947 286.933 215.277 287.417 215.607C289.75 217.197 292.075 218.782 294.617 220.065C295.049 220.252 295.482 220.439 295.907 220.626C295.907 221.381 295.907 221.754 296.04 222.072C296.171 222.384 296.431 222.642 296.945 223.154C298.306 224.343 298.306 224.343 299.415 225.786C299.488 225.883 299.561 225.979 299.633 226.075C302.529 229.916 305.338 233.643 310.035 235.584C313.457 235.98 316.611 236.339 319.632 234.544C321.898 232.585 322.464 230.887 322.763 228.015C322.684 221.807 319.034 217.477 314.739 213.132L312.379 212.384C311.86 211.135 311.333 209.886 310.806 208.644C302.467 200.567 291.376 194.831 279.812 192.49C278.089 192.161 276.366 191.824 274.651 191.457L273.865 190.71C266.785 190.246 259.563 190.725 252.861 193.043C251.951 193.371 251.949 193.372 251.066 193.699L251.06 193.701C241.62 197.142 233.407 201.233 225.729 207.612C224.738 208.472 223.731 209.332 222.732 210.185C219.287 212.788 216.73 215.226 214.237 218.711C213.434 219.885 212.608 221.044 211.727 222.166H210.154C209.462 224.522 209.462 224.522 207.699 226.609C205.804 229.069 204.183 231.612 202.586 234.237C202.142 234.971 201.699 235.704 201.256 236.437C200.814 237.17 200.372 237.903 199.927 238.635C198.433 240.924 197.489 242.621 196.631 245.224C196.419 246.039 196.206 246.825 195.994 247.61H194.421L193.634 250.602H192.061C190.621 252.486 189.724 253.578 187.585 254.805C186.971 255.156 186.365 255.5 185.768 255.837V257.333C185.695 257.371 185.622 257.41 185.549 257.449C183.763 258.397 182.132 259.262 180.741 260.728C178.247 263.697 175.738 265.971 172.481 268.192C171.356 268.955 170.231 269.718 169.122 270.496C168.548 270.9 167.997 271.289 167.446 271.685C166.463 272.366 165.496 273.069 164.544 273.787C163.199 275.103 161.94 276.202 160.374 277.287C156.945 279.515 153.57 281.729 150.384 284.257C145.113 288.595 139.52 292.671 133.707 296.373L133.707 296.373C131.528 297.749 131.528 297.749 129.711 299.103C125.62 302.304 121.545 305.475 116.967 308.078C115.386 308.938 115.386 308.938 114.261 309.716L114.261 309.716V311.212H112.688L111.901 313.455H110.328V315.699L111.114 314.203C111.818 314.026 112.166 313.938 112.514 313.849C112.854 313.762 113.194 313.674 113.868 313.5C115.63 313.119 117.345 312.722 119.067 312.191C121.616 311.346 124.133 310.546 126.761 309.925C130.6 309.058 134.273 308.153 137.931 306.679C140.661 305.58 143.21 304.892 146.112 304.391C147.172 304.232 147.654 304.159 148.132 304.067C148.53 303.99 148.926 303.899 149.652 303.733C151.092 302.125 151.092 302.125 153.027 301.728C159.714 300.337 166.054 298.452 172.457 296.254C176.076 294.728 179.419 293.598 183.313 292.843C184.949 292.522 186.57 292.177 188.183 291.766C192.32 289.156 192.32 289.156 197.308 287.989C197.797 287.86 198.279 287.73 198.757 287.602C199.163 287.493 199.566 287.385 199.967 287.279C206.732 285.409 215.629 284.145 222.15 287.421C222.882 287.877 223.598 288.326 224.314 288.775C234.915 298.368 240.225 303.173 244.498 308.77C248.787 314.386 252.032 320.8 258.533 333.649C259.438 335.406 260.35 337.156 261.27 338.906C261.797 339.901 262.325 340.903 262.844 341.898C269.452 354.762 276.453 366.878 286.129 377.947C286.333 378.177 286.534 378.404 286.734 378.63C287.16 379.11 287.578 379.583 288.001 380.056C290.762 383.242 293.547 386.189 296.811 388.881C297.81 389.689 298.809 390.497 299.809 391.312C303.978 395.223 308.359 398.776 313.103 402.082C313.445 402.321 313.781 402.555 314.115 402.786C314.334 402.938 314.552 403.09 314.771 403.241C323.738 409.673 333.808 415.484 344.191 419.695C344.868 419.957 345.537 420.218 346.197 420.48C346.781 420.722 347.361 420.966 347.939 421.209C351.328 422.637 354.642 424.034 358.312 424.698C359.026 424.79 359.252 424.819 359.652 424.871C359.838 424.896 360.061 424.925 360.389 424.968C361.427 428.453 362.497 431.863 363.929 435.214C364.101 435.574 364.271 435.932 364.44 436.288C364.663 436.758 364.884 437.225 365.109 437.689C371.795 452.573 379.111 467.007 388 480.843C388.363 481.397 388.727 481.95 389.091 482.504C390.045 483.953 391 485.403 391.933 486.864C392.224 487.32 392.5 487.754 392.783 488.195C393.059 488.629 393.336 489.064 393.614 489.498C393.891 489.931 394.168 490.365 394.443 490.798C395.851 493.012 397.251 495.113 398.919 497.148C400.075 498.486 401.208 499.855 402.317 501.231C402.812 501.844 403.306 502.457 403.8 503.069C409.034 509.562 414.243 516.024 420.41 521.724C420.657 521.951 420.902 522.173 421.144 522.394C421.366 522.596 421.585 522.795 421.803 522.995L425.736 526.735C428.882 529.846 432.053 532.725 435.648 535.335C436.175 535.702 436.686 536.068 437.197 536.427C444.906 541.924 452.694 546.666 462.055 549.366C462.811 549.568 463.542 549.763 464.274 549.957C468.443 551.303 472.077 551.662 476.388 551.692C477.199 551.692 477.985 551.692 478.772 551.685C484.042 551.767 488.542 551.572 493.482 549.8C493.87 549.649 494.063 549.575 494.256 549.5C494.446 549.427 494.637 549.354 495.016 549.209C496.944 548.543 498.682 547.84 500.523 546.965L501.309 544.722C502.239 544.584 502.718 544.513 503.194 544.424C503.701 544.329 504.204 544.213 505.243 543.974C505.966 542.351 505.966 542.351 507.689 541.154C519.174 532.703 528.591 520.961 533.177 507.648C533.539 506.534 533.916 505.427 534.31 504.327C536.142 500.61 537.173 497.222 537.912 493.184C537.996 492.72 538.074 492.262 538.151 491.806C538.197 491.534 538.243 491.263 538.29 490.992C538.699 488.666 539.092 486.348 539.47 484.022C539.498 483.851 539.526 483.681 539.553 483.511C539.643 482.962 539.732 482.419 539.816 481.875C542.31 466.768 542.538 450.688 540.603 435.505C539.588 434.698 539.588 434.698 539.635 432.783C539.336 427.099 538.644 421.602 537.558 415.955C537.377 415.013 537.197 414.1 537.016 413.188C536.806 412.119 536.598 411.048 536.389 409.975C535.962 407.783 535.535 405.585 535.096 403.391C532.319 402.725 531.375 402.568 528.606 403.578C523.729 405.791 518.663 407.152 513.345 408.297C511.685 408.641 510.033 409 508.381 409.374C496.66 412.373 496.66 412.373 484.703 413.906C483.704 414.041 482.729 414.168 481.761 414.302C481.051 414.401 480.699 414.449 480.347 414.497C480.001 414.544 479.655 414.591 478.969 414.684C477.482 414.878 476.003 415.095 474.524 415.357L473.737 416.105C451.318 419.553 425.358 419.336 402.939 416.105C401.224 415.29 401.224 415.29 397.267 414.833C397.035 414.808 396.804 414.783 396.574 414.757C393.302 414.399 390.171 414.057 387.04 413.113C384.909 412.403 382.903 411.984 380.676 411.617C379.636 411.464 379.141 411.392 378.653 411.291C378.211 411.2 377.773 411.086 376.94 410.87C375.248 409.493 375.248 409.493 374.776 407.609C374.226 405.447 373.644 403.293 373.007 401.147C371.339 397.654 370.245 394.423 369.419 390.676C368.845 388.014 368.263 385.381 367.5 382.748C365.525 376.466 364.078 370.131 363.063 363.602C362.804 361.86 362.544 360.109 362.277 358.359C362.08 357.09 362.08 357.088 361.892 355.839L361.891 355.831C361.687 354.493 361.466 353.154 361.207 351.823C360.035 349.848 360.035 349.848 359.972 347.455C359.924 346.924 359.877 346.408 359.83 345.892C359.665 344.172 359.508 342.451 359.35 340.731C359.337 340.582 359.324 340.435 359.312 340.289C359.27 339.811 359.229 339.346 359.193 338.876C358.367 329.453 357.856 320.104 357.856 310.606C357.863 310.022 357.863 309.454 357.863 308.886C357.879 298.565 358.493 288.468 359.72 278.222C359.822 277.354 359.924 276.524 360.027 275.686C360.184 274.347 360.184 274.347 360.334 273.039C360.491 271.767 360.491 271.767 360.64 270.526C360.798 269.202 360.979 267.886 361.207 266.569C361.365 266.419 361.495 266.295 361.607 266.158C362.121 265.529 362.274 264.606 363.126 259.464C363.472 257.318 363.873 255.231 364.353 253.107L365.927 252.359C365.968 252.031 366.008 251.705 366.048 251.381C366.107 250.908 366.165 250.44 366.226 249.973C367.248 240.101 371.504 229.93 375.901 221.03C377.105 218.606 378.073 216.295 378.749 213.693C378.856 213.217 378.958 212.746 379.06 212.279C379.137 211.923 379.214 211.569 379.292 211.217H380.865C382.36 208.083 383.807 205.009 384.995 201.794C385.146 201.33 385.221 201.1 385.295 200.87C385.368 200.643 385.441 200.417 385.585 199.969H387.158C388.173 198.181 388.913 196.468 389.613 194.546C389.849 193.843 390.077 193.17 390.305 192.49H391.878C394.348 189.588 396.276 186.514 397.684 183.066C397.928 182.146 397.928 182.146 398.172 181.241H399.745C400.04 180.849 400.328 180.472 400.616 180.095L400.626 180.082C404.087 174.622 408.5 170.165 413.134 165.573L413.335 165.382C415.198 163.619 416.992 161.92 418.64 159.963C420.819 157.376 423.171 155.094 425.893 153.023C428.017 151.415 430.086 149.762 432.147 148.094C432.517 147.795 432.7 147.647 432.882 147.499C433.06 147.354 433.237 147.208 433.587 146.92C435.435 145.424 437.284 143.928 439.093 142.388C439.364 142.126 439.623 141.871 439.874 141.625C441.513 140.013 442.816 138.732 445.142 137.81C445.523 137.671 445.9 137.535 446.275 137.4C446.504 137.317 446.732 137.235 446.96 137.152C447.715 135.851 448.031 135.307 448.488 134.939C448.817 134.675 449.219 134.503 449.91 134.206C452.765 132.927 455.44 131.334 457.674 129.21C458.767 128.073 458.767 128.073 460.482 127.287C460.962 127.086 461.434 126.884 461.906 126.682V125.186C465.053 125.186 465.053 125.186 467.066 123.974C470.363 121.978 472.015 120.978 473.712 120.061C475.417 119.141 477.167 118.305 480.676 116.63C481.989 116.017 483.294 115.396 484.6 114.776L484.601 114.775L484.606 114.773C485.38 114.401 485.381 114.4 486.143 114.042C488.539 112.899 488.542 112.898 490.931 111.766L490.941 111.761C491.484 111.499 492.011 111.252 492.538 111.006C493.072 110.752 493.604 110.498 494.136 110.244C494.67 109.989 495.204 109.735 495.74 109.48C498.509 108.134 501.278 106.787 504.157 105.621L504.158 105.62C506.069 104.917 507.981 104.215 509.884 103.497C517.042 100.475 524.429 98.052 531.91 95.8681C533.484 95.4193 535.057 94.9706 536.63 94.5144C539.674 93.5496 542.679 92.6596 545.755 91.8967C547.187 91.5452 548.611 91.1713 550.035 90.7749C552.308 89.8624 554.346 89.2043 556.768 88.6957L557.431 88.5775C560.188 88.0856 562.969 87.5893 565.736 87.0354C569.489 85.8013 572.816 85.1806 576.749 84.7917C578.008 94.5144 579.133 104.237 579.841 114.035L579.852 114.198C579.943 115.525 579.947 115.579 580.045 116.989C580.895 128.806 580.864 140.548 580.163 152.365C580.053 154.16 579.943 155.955 579.841 157.75C579.806 158.339 579.774 158.926 579.741 159.513C579.707 160.133 579.673 160.751 579.636 161.369C579.597 161.953 579.566 162.521 579.534 163.082C579.424 164.922 579.29 166.739 579.109 168.572C578.8 168.866 578.612 169.044 578.481 169.257C578.279 169.586 578.211 169.999 578.039 171.047C578.015 171.265 577.991 171.481 577.967 171.695C577.905 172.245 577.844 172.785 577.788 173.328C577.584 175.02 577.388 176.719 577.192 178.418L577.19 178.437C577.096 179.312 577.001 180.164 576.899 181.009C576.842 181.522 576.783 182.026 576.724 182.525C576.684 182.857 576.645 183.186 576.608 183.515C576.332 185.945 575.955 188.047 575.16 190.38C574.256 192.864 573.933 195.227 573.603 197.83C573.573 198.062 573.545 198.292 573.517 198.519C573.254 200.653 573.018 202.573 572.029 204.561C571.078 206.258 570.794 207.807 570.456 209.706C570.11 211.628 569.795 213.206 568.875 214.957C568.096 216.437 568.096 216.437 567.711 218.105C566.782 223.565 564.855 228.389 562.354 233.437C560.702 236.735 559.246 239.862 558.412 243.459C558.3 244.032 558.194 244.597 558.088 245.159C558.015 245.543 557.943 245.926 557.87 246.309H556.296C555.006 250.572 553.04 254.431 550.79 258.275C549.492 259.868 548.477 261.154 547.683 263.032C547.628 263.199 547.575 263.365 547.521 263.53C547.381 263.964 547.243 264.391 547.1 264.819C546.802 265.732 546.802 265.732 546.503 266.629C546.45 266.794 546.397 266.958 546.346 267.121C546.253 267.416 546.161 267.709 546.07 267.998H544.497C542.546 271.386 540.398 274.587 538.109 277.795C536.544 279.957 535.175 281.939 534.081 284.339C533.95 284.685 533.822 285.027 533.695 285.366C533.625 285.556 533.554 285.745 533.484 285.932H531.91L530.337 288.176C528.709 289.59 527.953 290.472 527.041 292.432C526.828 293.015 526.616 293.591 526.404 294.159H524.83L523.257 297.899H521.684C521.218 298.432 520.757 298.955 520.3 299.473L519.961 299.858C518.852 301.19 517.766 302.371 516.437 303.501L516.309 303.601C514.427 305.068 512.608 306.487 510.977 308.212C508.68 310.853 506.509 313.036 503.591 315.101C502.686 315.736 502.686 315.736 501.797 316.365C501.136 316.843 500.499 317.307 499.854 317.763C498.854 318.473 498.392 318.8 497.947 319.147C497.566 319.444 497.196 319.757 496.511 320.336L495.724 322.58H494.151L494.102 322.626C492.827 323.846 491.818 324.812 490.21 325.646L489.969 325.75C488.454 326.402 486.955 327.048 485.498 327.815C484.281 329.245 483.656 329.979 482.923 330.582C482.149 331.218 481.255 331.708 479.417 332.714C478.811 333.08 478.221 333.439 477.631 333.798C475.153 335.331 472.667 336.476 469.961 337.583C468.945 337.984 468.485 338.165 468.034 338.365C467.66 338.531 467.291 338.708 466.618 339.034C461.261 343.693 461.261 343.693 453.953 345.967C453.434 346.154 452.93 346.333 452.427 346.513V348.008C451.311 348.008 450.723 348.008 450.154 348.112C449.518 348.227 448.907 348.471 447.613 348.988C445.41 349.93 443.223 350.686 440.926 351.374C439.762 351.71 438.613 352.084 437.48 352.496C435.262 353.835 433.539 354.74 430.983 355.398C430.805 355.431 430.627 355.465 430.449 355.498C428.057 355.95 425.678 356.398 423.321 356.983C421.858 358.621 421.858 358.621 419.726 359.01C419.5 359.056 419.275 359.101 419.051 359.147C413.587 360.25 408.78 361.221 405.251 365.726C404.362 368.553 404.331 370.558 404.803 373.43C405.66 376.339 407.485 377.416 410.066 378.934C414.314 379.899 418.585 379.159 422.731 377.999C423.478 377.73 424.21 377.468 424.941 377.206C431.549 375.441 438 373.37 444.293 370.849C445.968 370.154 447.652 369.488 449.351 368.867C454.386 367.042 459.389 365.158 464.297 362.996V361.501C466.948 361.216 468.931 360.798 471.322 359.638C471.714 359.408 472.105 359.177 472.496 358.947C475.102 357.408 477.698 355.877 480.447 354.582C481.903 353.939 483.334 353.244 484.758 352.526L485.545 350.282C487.63 350.005 489.156 349.743 490.902 348.599C492.538 347.358 494.174 346.393 495.968 345.376C496.903 344.852 497.319 344.62 497.72 344.365C498.042 344.161 498.355 343.943 498.918 343.551V342.055C501.38 341.786 502.348 341.09 504.33 339.58C505.565 338.54 506.761 337.583 508.138 336.708C509.278 336.027 510.395 335.302 511.504 334.576V333.08C513.864 332.332 513.864 332.332 514.801 330.792C515.013 330.298 515.225 329.819 515.438 329.341C517.861 329.341 517.861 329.341 524.563 323.043C524.842 322.773 525.12 322.51 525.397 322.249C525.534 322.119 525.67 321.991 525.806 321.862C525.913 321.762 526.021 321.662 526.128 321.563C528.128 319.706 530.042 317.93 531.446 315.594C531.619 315.183 531.784 314.787 531.95 314.383H533.523C533.869 313.964 534.215 313.553 534.553 313.141C535.807 311.64 536.436 310.887 537.097 310.162C537.763 309.431 538.462 308.73 539.863 307.322C541.916 305.266 543.529 303.613 544.78 301.033C545.055 300.225 545.055 300.225 545.323 299.425H546.896L548.469 297.181C552.308 293.516 555.022 289.134 557.594 284.616C558.192 283.539 558.814 282.477 559.467 281.438C561.693 278.887 563.565 276.337 565.288 273.435C565.515 273.058 565.733 272.684 565.95 272.314C566.034 272.171 566.117 272.029 566.2 271.887L566.259 271.79C567.773 269.281 569.267 266.804 570.377 264.109C570.928 262.665 571.487 261.222 572.053 259.786C573.752 258.17 574.382 256.689 575.239 254.588L575.41 254.167C576.651 251.104 577.902 248.018 579.361 245.015C583.436 236.937 586.142 228.411 588.722 219.81C589.194 218.188 589.666 216.572 590.146 214.949C591.735 210.163 593.009 205.428 593.993 200.515C594.233 199.284 594.237 199.266 594.463 198.099L594.473 198.046C594.642 197.179 594.813 196.311 594.984 195.444C595.155 194.576 595.326 193.709 595.495 192.841L595.496 192.835C595.929 190.601 596.361 188.367 596.825 186.132C600.129 170.277 600.679 154.347 600.671 138.192V133.592C600.687 116.764 600.561 99.7871 597.226 83.2585C596.243 82.4657 596.243 82.4657 596.085 80.6632C595.967 79.8405 595.849 79.0403 595.731 78.24C595.456 76.4376 595.181 74.6351 594.913 72.8327C594.779 71.8978 594.646 70.9854 594.512 70.0729C594.37 69.1755 594.237 68.3079 594.111 67.4403C594.066 67.1384 594.027 66.8549 593.99 66.5869ZM526.747 459.44C527.216 452.208 527.945 440.94 523.929 437.739L524.001 437.701C520.306 436.887 517.656 437.358 514.024 438.115C508.597 439.272 503.129 440.099 497.582 440.799C495.73 441.034 493.879 441.27 492.027 441.518C474.228 444.412 456.27 444.8 438.152 444.819H435.925C433.762 444.819 431.607 444.819 429.444 444.813C428.937 444.81 428.686 444.808 428.434 444.807C428.187 444.807 427.939 444.807 427.449 444.807C425.294 444.8 423.162 444.769 421.007 444.699C420.271 444.405 419.875 444.247 419.464 444.149C418.983 444.034 418.484 444.001 417.4 443.929C411.334 443.687 405.38 443.134 399.362 442.396C398.925 442.337 398.499 442.283 398.078 442.229C397.767 442.189 397.459 442.15 397.151 442.109C396.44 442.02 395.754 441.938 395.06 441.849C392.529 441.524 390.741 441.55 388.283 442.154C388.02 444.228 388.291 445.347 389.401 447.262C392.825 452.033 395.914 456.9 398.819 461.893C400.583 464.998 402.283 467.988 404.781 470.736C405.825 471.806 406.268 472.26 406.664 472.75C406.956 473.111 407.223 473.491 407.686 474.152C416.466 487.574 429.795 502.396 444.401 512.065C444.962 512.409 445.239 512.579 445.516 512.75C445.788 512.917 446.059 513.084 446.596 513.414C446.966 513.652 447.336 513.891 447.706 514.13C453.582 517.92 459.635 521.824 466.55 524.356C466.95 524.489 467.338 524.622 467.725 524.756C467.854 524.8 467.984 524.845 468.114 524.89C469.735 525.507 471.323 526.022 473.031 526.461C480.693 527.6 489.401 527.746 495.938 524.197C496.245 524.022 496.549 523.854 496.849 523.687C497.009 523.598 497.168 523.509 497.327 523.42C497.544 523.305 497.759 523.192 497.973 523.079C500.127 521.944 502.1 520.905 503.385 519.018C503.466 518.874 503.546 518.731 503.626 518.589C503.757 518.354 503.886 518.122 504.015 517.892C504.884 517.662 505.479 517.505 506.023 517.242C507.21 516.668 508.155 515.593 511.159 512.174C511.435 511.853 511.706 511.535 511.974 511.219C512.249 510.897 512.521 510.577 512.795 510.259C524.392 496.964 526.451 479.851 526.523 464.075C526.52 462.953 526.625 461.335 526.747 459.44Z" fill="#C7CCCF"/>
</g>
</svg>
